# xmcd
# 
# Track frame offsets:
#     150
#     17875
#     31663
#     45313
#     61505
#     75938
#     94548
#     107385
#     123980
#     138565
# 
# Disc length: 2039
# 
# Revision: 1
# Processed by: cddbd v1.5.2PL0 Copyright (c) Steve Scherf et al.
# Submitted via: fre:ac v1.0.27
# 
DISCID=6407f50a
DTITLE=Yuri - Aire
DYEAR=1988
DGENRE=Latin
TTITLE0=Cuando Baja La Marea
TTITLE1=Que Te Pasa
TTITLE2=Entre Dos Aguas
TTITLE3=Piedad
TTITLE4=Tonto
TTITLE5=Amores Clandestinos
TTITLE6=Cartas
TTITLE7=Bubalu
TTITLE8=Comediantes
TTITLE9=Amo
EXTD=
EXTT0=
EXTT1=
EXTT2=
EXTT3=
EXTT4=
EXTT5=
EXTT6=
EXTT7=
EXTT8=
EXTT9=
PLAYORDER=
